<svg width="64" height="41" viewBox="0 0 128 82" fill="none" xmlns="http://www.w3.org/2000/svg">
<path fill-rule="evenodd" clip-rule="evenodd" d="M70.8077 13.6672C70.8077 9.13801 67.1498 5.46684 62.637 5.46684H46.2967C32.7604 5.46684 21.786 16.4813 21.786 30.0666V47.8332C21.786 47.0782 22.3958 46.4662 23.1481 46.4662C23.9003 46.4662 24.5102 47.0782 24.5102 47.8332C24.5102 48.5883 23.9003 49.2003 23.1481 49.2003C22.3958 49.2003 21.786 48.5883 21.786 47.8332V51.9334C21.786 52.3043 21.7945 52.6742 21.8107 53.0412C21.9313 52.4101 22.4841 51.9334 23.148 51.9334C23.9003 51.9334 24.5101 52.5455 24.5101 53.2995C24.5101 54.0546 23.9003 54.6666 23.148 54.6666C22.5392 54.6666 22.0234 54.2652 21.8496 53.7123C21.9436 55.0403 22.1431 56.3387 22.4395 57.599C22.6456 57.4731 22.8888 57.3997 23.1481 57.3997C23.9004 57.3997 24.5102 58.0117 24.5102 58.7668C24.5102 59.5104 23.9175 60.1157 23.1813 60.1329C25.6424 67.1225 31.1629 72.6631 38.1273 75.1331C38.1444 74.3943 38.7476 73.7994 39.4885 73.7994C40.2408 73.7994 40.8506 74.4114 40.8506 75.1665C40.8506 75.4267 40.7774 75.6707 40.652 75.8776C41.9077 76.1751 43.2013 76.3753 44.5246 76.4696C43.9737 76.2952 43.5738 75.7775 43.5738 75.1665C43.5738 74.4114 44.1836 73.7994 44.9359 73.7994C45.6872 73.7994 46.2971 74.4114 46.2971 75.1665C46.2971 75.8328 45.8222 76.3876 45.1933 76.5087C45.559 76.5249 45.9276 76.5335 46.2971 76.5335H50.3824C49.6301 76.5335 49.0203 75.9215 49.0203 75.1665C49.0203 74.4114 49.6301 73.7994 50.3824 73.7994C51.1347 73.7994 51.7445 74.4114 51.7445 75.1665C51.7445 75.9215 51.1347 76.5335 50.3824 76.5335H55.9248C54.9978 74.9253 54.4678 73.0578 54.4678 71.0664C54.4678 69.074 54.9987 67.2056 55.9267 65.5964C55.8944 65.5993 55.8621 65.6002 55.8289 65.6002C55.0776 65.6002 54.4678 64.9882 54.4678 64.2332C54.4678 63.4781 55.0776 62.8671 55.8289 62.8671C56.4615 62.8671 56.9934 63.2989 57.1464 63.8852C57.4608 63.5239 57.798 63.1836 58.156 62.8671C55.8935 60.8633 54.4678 57.9318 54.4678 54.6667C54.4678 52.6743 54.9987 50.8059 55.9267 49.1967C55.8944 49.1986 55.8621 49.2005 55.8289 49.2005C55.0776 49.2005 54.4677 48.5885 54.4677 47.8334C54.4677 47.0784 55.0775 46.4664 55.8289 46.4664C56.4615 46.4664 56.9934 46.8992 57.1463 47.4855C57.475 47.107 57.8293 46.7524 58.2064 46.4226C57.6222 46.2681 57.191 45.7352 57.191 45.1003C57.191 44.3453 57.8008 43.7333 58.5531 43.7333C59.3044 43.7333 59.9142 44.3453 59.9142 45.1003C59.9142 45.1327 59.9133 45.1661 59.9114 45.1985C60.2999 44.9716 60.7045 44.7695 61.1225 44.5922C58.1598 42.0402 55.9866 38.5911 55.0215 34.6654C51.5326 38.555 46.4756 41.0001 40.8507 41.0001C39.3462 41.0001 38.1276 39.7761 38.1276 38.2671C38.1276 36.757 39.3462 35.534 40.8507 35.534C48.3708 35.534 54.4678 29.4148 54.4678 21.8675C54.4678 20.3575 55.6865 19.1335 57.191 19.1335C58.6955 19.1335 59.9142 20.3575 59.9142 21.8675V30.0669C59.9142 36.6791 64.5921 42.1937 70.8081 43.4598L70.8077 13.6672ZM62.637 0.000731732C69.2252 0.000731732 74.72 4.69566 75.9825 10.9342H117.106C123.122 10.9342 128 15.8295 128 21.8676C128 27.9058 123.122 32.8001 117.106 32.8001H102.032C102.959 34.4083 103.489 36.2758 103.489 38.2672C103.489 41.5323 102.063 44.4637 99.8017 46.4666C102.063 48.4704 103.489 51.4019 103.489 54.667C103.489 59.4364 100.447 63.4917 96.2036 64.9864C97.3653 66.7252 98.0426 68.8167 98.0426 71.0666C98.0426 77.1047 93.165 82 87.1486 82H46.2974C36.1653 82 27.2082 76.9522 21.7866 69.2248V73.7996C21.7866 75.3096 20.568 76.5336 19.0634 76.5336H2.72317C1.21861 76.5336 0 75.3096 0 73.7996V8.20039C0 6.69036 1.21866 5.46636 2.72317 5.46636H19.0634C20.568 5.46636 21.7866 6.69039 21.7866 8.20039V12.7753C27.2084 5.04782 36.1655 0 46.2974 0L62.637 0.000731732ZM122.552 21.8676C122.552 18.8486 120.113 16.4005 117.105 16.4005H76.2536V25.9668C76.2536 25.2128 76.8634 24.6008 77.6157 24.6008C78.368 24.6008 78.9778 25.2128 78.9778 25.9668C78.9778 26.7209 78.3689 27.332 77.6186 27.3339H83.0603C82.309 27.332 81.7011 26.7209 81.7011 25.9668C81.7011 25.2128 82.3109 24.6008 83.0622 24.6008C83.8145 24.6008 84.4243 25.2128 84.4243 25.9668C84.4243 26.7209 83.8164 27.332 83.0651 27.3339H88.5068C87.7555 27.332 87.1476 26.7209 87.1476 25.9668C87.1476 25.2128 87.7574 24.6008 88.5097 24.6008C89.262 24.6008 89.8708 25.2128 89.8708 25.9668C89.8708 26.7209 89.2629 27.332 88.5125 27.3339H93.9543C93.203 27.3329 92.5951 26.7209 92.5951 25.9668C92.5951 25.2128 93.2039 24.6008 93.9562 24.6008C94.7085 24.6008 95.3183 25.2128 95.3183 25.9668C95.3183 26.7209 94.7094 27.3329 93.9591 27.3339H99.4018C98.6504 27.3329 98.0416 26.7209 98.0416 25.9668C98.0416 25.2128 98.6514 24.6008 99.4037 24.6008C100.155 24.6008 100.765 25.2128 100.765 25.9668C100.765 26.7209 100.156 27.3329 99.4046 27.3339H104.848C104.097 27.3329 103.488 26.7219 103.488 25.9668C103.488 25.2128 104.098 24.6008 104.85 24.6008C105.602 24.6008 106.212 25.2128 106.212 25.9668C106.212 26.7219 105.603 27.3329 104.852 27.3339H110.296C109.544 27.3329 108.936 26.7219 108.936 25.9668C108.936 25.2128 109.545 24.6008 110.297 24.6008C111.049 24.6008 111.659 25.2128 111.659 25.9668C111.659 26.7219 111.05 27.3329 110.299 27.3339H115.743C114.992 27.3339 114.382 26.7219 114.382 25.9668C114.382 25.2128 114.992 24.6008 115.744 24.6008C116.496 24.6008 117.105 25.2128 117.105 25.9668C117.105 26.7219 116.496 27.3339 115.745 27.3339H117.105C118.148 27.3339 119.122 27.0403 119.95 26.5302C119.872 26.3587 119.829 26.168 119.829 25.9668C119.829 25.2128 120.438 24.6008 121.191 24.6008C121.391 24.6008 121.581 24.6437 121.752 24.7218C122.26 23.8906 122.553 22.9134 122.553 21.8677L122.552 21.8676ZM76.2541 25.9668V27.3339H77.6133C76.8629 27.332 76.2541 26.7209 76.2541 25.9668ZM92.5953 32.8001H92.5982C95.6054 32.802 98.0418 35.2491 98.0418 38.2672C98.0418 38.5789 98.0162 38.8849 97.9658 39.1824C97.7797 38.6495 97.2743 38.2672 96.6797 38.2672C95.9284 38.2672 95.3186 38.8792 95.3186 39.6333C95.3186 40.3883 95.9284 41.0003 96.6797 41.0003C96.9609 41.0003 97.2231 40.9145 97.4396 40.7687C96.9201 41.7801 96.0956 42.6076 95.0868 43.129C95.2331 42.9117 95.3186 42.6495 95.3186 42.3673C95.3186 41.6123 94.7088 41.0003 93.9565 41.0003C93.2042 41.0003 92.5953 41.6123 92.5953 42.3673C92.5953 42.9641 92.9762 43.4713 93.5072 43.6572C93.2108 43.7077 92.9059 43.7334 92.5953 43.7334H76.2541V32.8L92.5953 32.8001ZM76.2541 42.3674C76.2541 43.1214 76.8639 43.7335 77.6162 43.7335C78.3685 43.7335 78.9783 43.1215 78.9783 42.3674C78.9783 41.6124 78.3685 41.0003 77.6162 41.0003C76.8639 41.0003 76.2541 41.6124 76.2541 42.3674ZM83.0626 43.7335C83.8149 43.7335 84.4247 43.1215 84.4247 42.3674C84.4247 41.6124 83.8149 41.0003 83.0626 41.0003C82.3113 41.0003 81.7015 41.6124 81.7015 42.3674C81.7015 43.1214 82.3113 43.7335 83.0626 43.7335ZM88.5099 43.7335C89.2622 43.7335 89.8711 43.1215 89.8711 42.3674C89.8711 41.6124 89.2622 41.0003 88.5099 41.0003C87.7576 41.0003 87.1478 41.6124 87.1478 42.3674C87.1478 43.1214 87.7576 43.7335 88.5099 43.7335ZM92.5953 49.2006C95.6035 49.2006 98.0417 51.6476 98.0417 54.6667C98.0417 54.9784 98.016 55.2844 97.9657 55.5818C97.7795 55.0489 97.2742 54.6667 96.6796 54.6667C95.9282 54.6667 95.3184 55.2787 95.3184 56.0337C95.3184 56.7878 95.9282 57.3998 96.6796 57.3998C96.9607 57.3998 97.2229 57.314 97.4394 57.1682C96.9199 58.1796 96.0954 59.0071 95.0866 59.5285C95.2329 59.3112 95.3184 59.049 95.3184 58.7668C95.3184 58.0118 94.7086 57.3998 93.9563 57.3998C93.204 57.3998 92.5952 58.0118 92.5952 58.7668C92.5952 59.3636 92.9761 59.8708 93.507 60.0567C93.2107 60.1072 92.9058 60.1329 92.5952 60.1329H65.361C62.3528 60.1329 59.9137 57.6859 59.9137 54.6668C59.9137 51.6477 62.3528 49.2007 65.361 49.2007L92.5953 49.2006ZM66.7228 60.133C67.4751 60.133 68.0849 59.522 68.0849 58.7669C68.0849 58.0119 67.4751 57.3999 66.7228 57.3999C65.9705 57.3999 65.3617 58.0119 65.3617 58.7669C65.3617 59.522 65.9705 60.133 66.7228 60.133ZM72.1702 60.133C72.9215 60.133 73.5313 59.522 73.5313 58.7669C73.5313 58.0119 72.9215 57.3999 72.1702 57.3999C71.4179 57.3999 70.8081 58.0119 70.8081 58.7669C70.8081 59.522 71.4179 60.133 72.1702 60.133ZM77.6165 60.133C78.3688 60.133 78.9786 59.522 78.9786 58.7669C78.9786 58.0119 78.3688 57.3999 77.6165 57.3999C76.8642 57.3999 76.2544 58.0119 76.2544 58.7669C76.2544 59.522 76.8642 60.133 77.6165 60.133ZM83.0629 60.133C83.8152 60.133 84.425 59.522 84.425 58.7669C84.425 58.0119 83.8152 57.3999 83.0629 57.3999C82.3115 57.3999 81.7017 58.0119 81.7017 58.7669C81.7017 59.522 82.3115 60.133 83.0629 60.133ZM88.5102 60.133C89.2625 60.133 89.8713 59.522 89.8713 58.7669C89.8713 58.0119 89.2625 57.3999 88.5102 57.3999C87.7579 57.3999 87.1481 58.0119 87.1481 58.7669C87.1481 59.522 87.7579 60.133 88.5102 60.133ZM5.44593 71.0665H16.3399V10.9339H5.44593V71.0665ZM59.9143 71.0665C59.9143 74.0856 62.3535 76.5336 65.3616 76.5336H66.7228C65.9705 76.5336 65.3616 75.9216 65.3616 75.1665C65.3616 74.4115 65.9705 73.7995 66.7228 73.7995C67.4751 73.7995 68.0849 74.4115 68.0849 75.1665C68.0849 75.9216 67.4751 76.5336 66.7228 76.5336H72.1701C71.4178 76.5336 70.808 75.9216 70.808 75.1665C70.808 74.4115 71.4178 73.7995 72.1701 73.7995C72.9214 73.7995 73.5312 74.4115 73.5312 75.1665C73.5312 75.9216 72.9214 76.5336 72.1701 76.5336H77.6164C76.8641 76.5336 76.2543 75.9216 76.2543 75.1665C76.2543 74.4115 76.8641 73.7995 77.6164 73.7995C78.3687 73.7995 78.9785 74.4115 78.9785 75.1665C78.9785 75.9216 78.3687 76.5336 77.6164 76.5336H83.0628C82.3115 76.5336 81.7016 75.9216 81.7016 75.1665C81.7016 74.4115 82.3114 73.7995 83.0628 73.7995C83.8151 73.7995 84.4249 74.4115 84.4249 75.1665C84.4249 75.9216 83.8151 76.5336 83.0628 76.5336H87.1482C87.4588 76.5336 87.7637 76.5069 88.06 76.4573C87.5291 76.2705 87.1482 75.7633 87.1482 75.1665C87.1482 74.4115 87.758 73.7995 88.5103 73.7995C89.2625 73.7995 89.8714 74.4115 89.8714 75.1665C89.8714 75.4487 89.7869 75.7109 89.6406 75.9292C90.6484 75.4068 91.4729 74.5793 91.9934 73.5678C91.7759 73.7147 91.5146 73.7995 91.2335 73.7995C90.4812 73.7995 89.8714 73.1884 89.8714 72.4334C89.8714 71.6784 90.4812 71.0664 91.2335 71.0664C91.8281 71.0664 92.3334 71.4486 92.5196 71.9815C92.569 71.6841 92.5956 71.3781 92.5956 71.0664C92.5956 68.0473 90.1564 65.6002 87.1483 65.6002H65.3614C62.3533 65.6002 
59.9141 68.0473 59.9141 71.0664L59.9143 71.0665ZM89.8719 39.6335C89.8719 38.8795 90.4817 38.2674 91.234 38.2674C91.9863 38.2674 92.5961 38.8794 92.5961 39.6335C92.5961 40.3885 91.9863 41.0006 91.234 41.0006C90.4817 41.0006 89.8719 40.3885 89.8719 39.6335ZM84.4255 39.6335C84.4255 38.8795 85.0354 38.2674 85.7876 38.2674C86.539 38.2674 87.1488 38.8794 87.1488 39.6335C87.1488 40.3885 86.539 41.0006 85.7876 41.0006C85.0354 41.0006 84.4255 40.3885 84.4255 39.6335ZM78.9792 39.6335C78.9792 38.8795 79.5881 38.2674 80.3403 38.2674C81.0926 38.2674 81.7024 38.8794 81.7024 39.6335C81.7024 40.3885 81.0926 41.0006 80.3403 41.0006C79.5881 41.0006 78.9792 40.3885 78.9792 39.6335ZM89.8721 56.0341C89.8721 55.279 90.4819 54.667 91.2342 54.667C91.9865 54.667 92.5963 55.279 92.5963 56.0341C92.5963 56.7881 91.9865 57.4001 91.2342 57.4001C90.4819 57.4001 89.8721 56.7881 89.8721 56.0341ZM84.4258 56.0341C84.4258 55.279 85.0356 54.667 85.7879 54.667C86.5392 54.667 87.149 55.279 87.149 56.0341C87.149 56.7881 86.5392 57.4001 85.7879 57.4001C85.0356 57.4001 84.4258 56.7881 84.4258 56.0341ZM78.9794 56.0341C78.9794 55.279 79.5883 54.667 80.3406 54.667C81.0929 54.667 81.7027 55.279 81.7027 56.0341C81.7027 56.7881 81.0929 57.4001 80.3406 57.4001C79.5883 57.4001 78.9794 56.7881 78.9794 56.0341ZM73.5321 56.0341C73.5321 55.279 74.1419 54.667 74.8942 54.667C75.6465 54.667 76.2554 55.279 76.2554 56.0341C76.2554 56.7881 75.6465 57.4001 74.8942 57.4001C74.1419 57.4001 73.5321 56.7881 73.5321 56.0341ZM68.0858 56.0341C68.0858 55.279 68.6956 54.667 69.4469 54.667C70.1992 54.667 70.809 55.279 70.809 56.0341C70.809 56.7881 70.1992 57.4001 69.4469 57.4001C68.6956 57.4001 68.0858 56.7881 68.0858 56.0341ZM62.6384 56.0341C62.6384 55.279 63.2483 54.667 64.0005 54.667C64.7528 54.667 65.3626 55.279 65.3626 56.0341C65.3626 56.7881 64.7528 57.4001 64.0005 57.4001C63.2483 57.4001 62.6384 56.7881 62.6384 56.0341ZM85.7882 71.0667C85.0359 71.0667 84.4261 71.6787 84.4261 72.4338C84.4261 73.1888 85.0359 73.7999 85.7882 73.7999C86.5396 73.7999 87.1494 73.1888 87.1494 72.4338C87.1494 71.6787 86.5396 71.0667 85.7882 71.0667ZM80.3409 71.0667C79.5886 71.0667 78.9798 71.6787 78.9798 72.4338C78.9798 73.1888 79.5886 73.7999 80.3409 73.7999C81.0932 73.7999 81.703 73.1888 81.703 72.4338C81.703 71.6787 81.0932 71.0667 80.3409 71.0667ZM74.8946 71.0667C74.1423 71.0667 73.5325 71.6787 73.5325 72.4338C73.5325 73.1888 74.1423 73.7999 74.8946 73.7999C75.6469 73.7999 76.2557 73.1888 76.2557 72.4338C76.2557 71.6787 75.6469 71.0667 74.8946 71.0667ZM69.4472 71.0667C68.6959 71.0667 68.0861 71.6787 68.0861 72.4338C68.0861 73.1888 68.6959 73.7999 69.4472 73.7999C70.1995 73.7999 70.8093 73.1888 70.8093 72.4338C70.8093 71.6787 70.1995 71.0667 69.4472 71.0667ZM64.0009 71.0667C63.2486 71.0667 62.6388 71.6787 62.6388 72.4338C62.6388 73.1888 63.2486 73.7999 64.0009 73.7999C64.7532 73.7999 65.363 73.1888 65.363 72.4338C65.363 71.6787 64.7532 71.0667 64.0009 71.0667ZM118.469 21.8673C117.717 21.8673 117.107 22.4784 117.107 23.2334C117.107 23.9884 117.717 24.6004 118.469 24.6004C119.222 24.6004 119.831 23.9884 119.831 23.2334C119.831 22.4784 119.222 21.8673 118.469 21.8673ZM113.023 21.8673C112.271 21.8673 111.661 22.4784 111.661 23.2334C111.661 23.9884 112.271 24.6004 113.023 24.6004C113.774 24.6004 114.384 23.9884 114.384 23.2334C114.384 22.4784 113.774 21.8673 113.023 21.8673ZM107.576 21.8673C106.823 21.8673 106.214 22.4784 106.214 23.2334C106.214 23.9884 106.823 24.6004 107.576 24.6004C108.328 24.6004 108.938 23.9884 108.938 23.2334C108.938 22.4784 108.328 21.8673 107.576 21.8673ZM102.129 21.8673C101.377 21.8673 100.767 22.4784 100.767 23.2334C100.767 23.9884 101.377 24.6004 102.129 24.6004C102.882 24.6004 103.49 23.9884 103.49 23.2334C103.49 22.4784 102.882 21.8673 102.129 21.8673V21.8673ZM96.6819 21.8673C95.9306 21.8673 95.3207 22.4784 95.3207 23.2334C95.3207 23.9884 95.9305 24.6004 96.6819 24.6004C97.4342 24.6004 98.044 23.9884 98.044 23.2334C98.044 22.4784 97.4342 21.8673 96.6819 21.8673ZM91.2355 21.8673C90.4832 21.8673 89.8735 22.4784 89.8735 23.2334C89.8735 23.9884 90.4832 24.6004 91.2355 24.6004C91.9878 24.6004 92.5976 23.9884 92.5976 23.2334C92.5976 22.4784 91.9878 21.8673 91.2355 21.8673ZM85.7892 21.8673C85.0369 21.8673 84.4271 22.4784 84.4271 23.2334C84.4271 23.9884 85.0369 24.6004 85.7892 24.6004C86.5405 24.6004 87.1503 23.9884 87.1503 23.2334C87.1503 22.4784 86.5405 21.8673 85.7892 21.8673ZM80.3419 21.8673C79.5896 21.8673 78.9807 22.4784 78.9807 23.2334C78.9807 23.9884 79.5896 24.6004 80.3419 24.6004C81.0942 24.6004 81.704 23.9884 81.704 23.2334C81.704 22.4784 81.0942 21.8673 80.3419 21.8673ZM55.8311 40.9999C55.0798 40.9999 54.47 41.6119 54.47 42.367C54.47 43.121 55.0798 43.7331 55.8311 43.7331C56.5834 43.7331 57.1932 43.121 57.1932 42.367C57.1932 41.6119 56.5834 40.9999 55.8311 40.9999ZM53.1079 43.733C52.3556 43.733 51.7468 44.345 51.7468 45.1C51.7468 45.855 52.3556 46.4661 53.1079 46.4661C53.8602 46.4661 54.47 45.855 54.47 45.1C54.47 44.345 53.8602 43.733 53.1079 43.733ZM51.7468 50.5662C51.7468 49.8112 52.3556 49.2001 53.1079 49.2001C53.8602 49.2001 54.47 49.8112 54.47 50.5662C54.47 51.3213 53.8602 51.9333 53.1079 51.9333C52.3556 51.9333 51.7468 51.3213 51.7468 50.5662ZM53.1079 54.6664C52.3556 54.6664 51.7468 55.2784 51.7468 56.0335C51.7468 56.7875 52.3556 57.3996 53.1079 57.3996C53.8602 57.3996 54.47 56.7875 54.47 56.0335C54.47 55.2784 53.8602 54.6664 53.1079 54.6664ZM51.7468 61.4997C51.7468 60.7447 52.3556 60.1326 53.1079 60.1326C53.8602 60.1326 54.47 60.7447 54.47 61.4997C54.47 62.2547 53.8602 62.8667 53.1079 62.8667C52.3556 62.8667 51.7468 62.2547 51.7468 61.4997ZM53.1079 65.5999C52.3556 65.5999 51.7468 66.2119 51.7468 66.966C51.7468 67.721 52.3556 68.333 53.1079 68.333C53.8602 68.333 54.47 67.721 54.47 66.966C54.47 66.2119 53.8602 65.5999 53.1079 65.5999ZM51.7468 72.4331C51.7468 71.6781 52.3556 71.0661 53.1079 71.0661C53.8602 71.0661 54.47 71.6781 54.47 72.4331C54.47 73.1882 53.8602 73.7992 53.1079 73.7992C52.3556 73.7992 51.7468 73.1882 51.7468 72.4331ZM50.3847 57.3995C49.6324 57.3995 49.0226 58.0115 49.0226 58.7665C49.0226 59.5216 49.6324 60.1326 50.3847 60.1326C51.137 60.1326 51.7468 59.5216 51.7468 58.7665C51.7468 58.0115 51.137 57.3995 50.3847 57.3995ZM49.0226 64.2327C49.0226 63.4777 49.6324 62.8667 50.3847 62.8667C51.137 62.8667 51.7468 63.4777 51.7468 64.2327C51.7468 64.9878 51.137 65.5998 50.3847 65.5998C49.6324 65.5998 49.0226 64.9878 49.0226 64.2327ZM50.3847 68.3329C49.6324 68.3329 49.0226 68.945 49.0226 69.7C49.0226 70.454 49.6324 71.0661 50.3847 71.0661C51.137 71.0661 51.7468 70.4541 51.7468 69.7C51.7468 68.945 51.137 68.3329 50.3847 68.3329ZM47.6615 60.1325C46.9092 60.1325 46.2994 60.7446 46.2994 61.4996C46.2994 62.2546 46.9092 62.8666 47.6615 62.8666C48.4138 62.8666 49.0227 62.2546 49.0227 61.4996C49.0227 60.7446 48.4138 60.1325 47.6615 60.1325ZM46.2994 66.9658C46.2994 66.2117 46.9092 65.5997 47.6615 65.5997C48.4138 65.5997 49.0227 66.2117 49.0227 66.9658C49.0227 67.7208 48.4138 68.3328 47.6615 68.3328C46.9092 68.3328 46.2994 67.7208 46.2994 66.9658ZM47.6615 71.066C46.9092 71.066 46.2994 71.678 46.2994 72.433C46.2994 73.1881 46.9092 73.7991 47.6615 73.7991C48.4138 73.7991 49.0227 73.1881 49.0227 72.433C49.0227 71.678 48.4138 71.066 47.6615 71.066ZM43.5761 64.2327C43.5761 63.4777 44.1859 62.8667 44.9382 62.8667C45.6896 62.8667 46.2994 63.4777 46.2994 64.2327C46.2994 64.9878 45.6896 65.5998 44.9382 65.5998C44.1859 65.5998 43.5761 64.9878 43.5761 64.2327ZM44.9382 68.3329C44.1859 68.3329 43.5761 68.945 43.5761 69.7C43.5761 70.454 44.1859 71.0661 44.9382 71.0661C45.6896 71.0661 46.2994 70.4541 46.2994 69.7C46.2994 68.945 45.6896 68.3329 44.9382 68.3329ZM42.2141 60.1325C41.4628 60.1325 40.8529 60.7446 40.8529 61.4996C40.8529 62.2546 41.4627 62.8666 42.2141 62.8666C42.9664 62.8666 43.5762 62.2546 43.5762 61.4996C43.5762 60.7446 42.9664 60.1325 42.2141 60.1325ZM40.8529 66.9658C40.8529 66.2117 41.4627 65.5997 42.2141 65.5997C42.9664 65.5997 43.5762 66.2117 43.5762 66.9658C43.5762 67.7208 42.9664 68.3328 42.2141 68.3328C41.4628 68.3328 40.8529 67.7208 40.8529 66.9658ZM42.2141 71.066C41.4628 71.066 40.8529 71.678 40.8529 72.433C40.8529 73.1881 41.4627 73.7991 42.2141 73.7991C42.9664 73.7991 43.5762 73.1881 43.5762 72.433C43.5762 71.678 42.9664 71.066 42.2141 71.066ZM38.1297 64.2327C38.1297 63.4777 38.7386 62.8667 39.4909 62.8667C40.2431 62.8667 40.8529 63.4777 40.8529 64.2327C40.8529 64.9878 40.2431 65.5998 39.4909 65.5998C38.7386 65.5998 38.1297 64.9878 38.1297 64.2327ZM39.4909 68.3329C38.7386 68.3329 38.1297 68.945 38.1297 69.7C38.1297 70.454 38.7386 71.0661 39.4909 71.0661C40.2431 71.0661 40.8529 70.4541 40.8529 69.7C40.8529 68.945 40.2431 68.3329 39.4909 68.3329ZM36.7677 60.1325C36.0154 60.1325 35.4056 60.7446 35.4056 61.4996C35.4056 62.2546 36.0154 62.8666 36.7677 62.8666C37.52 62.8666 38.1298 62.2546 38.1298 61.4996C38.1298 60.7446 37.52 60.1325 36.7677 60.1325ZM35.4056 66.9658C35.4056 66.2117 36.0154 65.5997 36.7677 65.5997C37.52 65.5997 38.1298 66.2117 38.1298 66.9658C38.1298 67.7208 37.52 68.3328 36.7677 68.3328C36.0154 68.3328 35.4056 67.7208 35.4056 66.9658ZM36.7677 71.066C36.0154 71.066 35.4056 71.678 35.4056 72.433C35.4056 73.1881 36.0154 73.7991 36.7677 73.7991C37.52 73.7991 38.1298 73.1881 38.1298 72.433C38.1298 71.678 37.52 71.066 36.7677 71.066ZM32.6823 58.7666C32.6823 58.0116 33.2921 57.3996 34.0444 57.3996C34.7967 57.3996 35.4056 58.0116 35.4056 58.7666C35.4056 59.5217 34.7967 60.1327 34.0444 60.1327C33.2921 60.1327 32.6823 59.5217 32.6823 58.7666ZM34.0444 62.8668C33.2921 62.8668 32.6823 63.4779 32.6823 64.2329C32.6823 64.9879 33.2921 65.5999 34.0444 65.5999C34.7967 65.5999 35.4056 64.9879 35.4056 64.2329C35.4056 63.4779 34.7967 62.8668 34.0444 62.8668ZM32.6823 69.7001C32.6823 68.945 33.2921 68.333 34.0444 68.333C34.7967 68.333 35.4056 68.945 35.4056 69.7001C35.4056 70.4541 34.7967 71.0662 34.0444 71.0662C33.2921 71.0662 32.6823 70.4541 32.6823 69.7001ZM31.3212 54.6664C30.5689 54.6664 29.9591 55.2784 29.9591 56.0335C29.9591 56.7875 30.5689 57.3996 31.3212 57.
3996C32.0725 57.3996 32.6823 56.7875 32.6823 56.0335C32.6823 55.2784 32.0725 54.6664 31.3212 54.6664ZM29.9591 61.4997C29.9591 60.7447 30.5689 60.1326 31.3212 60.1326C32.0725 60.1326 32.6823 60.7447 32.6823 61.4997C32.6823 62.2547 32.0725 62.8667 31.3212 62.8667C30.5689 62.8667 29.9591 62.2547 29.9591 61.4997ZM31.3212 65.5999C30.5689 65.5999 29.9591 66.2119 29.9591 66.966C29.9591 67.721 30.5689 68.333 31.3212 68.333C32.0725 68.333 32.6823 67.721 32.6823 66.966C32.6823 66.2119 32.0725 65.5999 31.3212 65.5999ZM27.2358 53.2995C27.2358 52.5455 27.8456 51.9334 28.5969 51.9334C29.3492 51.9334 29.959 52.5455 29.959 53.2995C29.959 54.0546 29.3492 54.6666 28.5969 54.6666C27.8456 54.6666 27.2358 54.0546 27.2358 53.2995ZM28.5969 57.3997C27.8456 57.3997 27.2358 58.0117 27.2358 58.7668C27.2358 59.5218 27.8456 60.1329 28.5969 60.1329C29.3492 60.1329 29.959 59.5218 29.959 58.7668C29.959 58.0117 29.3492 57.3997 28.5969 57.3997ZM27.2358 64.233C27.2358 63.478 27.8456 62.8669 28.5969 62.8669C29.3492 62.8669 29.959 63.478 29.959 64.233C29.959 64.988 29.3492 65.6 28.5969 65.6C27.8456 65.6 27.2358 64.988 27.2358 64.233ZM25.8737 49.2003C25.1214 49.2003 24.5125 49.8114 24.5125 50.5664C24.5125 51.3214 25.1214 51.9334 25.8737 51.9334C26.626 51.9334 27.2358 51.3214 27.2358 50.5664C27.2358 49.8114 26.626 49.2003 25.8737 49.2003ZM24.5125 56.0336C24.5125 55.2785 25.1214 54.6665 25.8737 54.6665C26.626 54.6665 27.2358 55.2785 27.2358 56.0336C27.2358 56.7876 26.626 57.3997 25.8737 57.3997C25.1214 57.3997 24.5125 56.7876 24.5125 56.0336ZM25.8737 60.1328C25.1214 60.1328 24.5125 60.7448 24.5125 61.4998C24.5125 62.2549 25.1214 62.8669 25.8737 62.8669C26.626 62.8669 27.2358 62.2549 27.2358 61.4998C27.2358 60.7448 26.626 60.1328 25.8737 60.1328Z" fill="#CCCCCC"/>
</svg>
